<?xml version="1.0" standalone="no"?>
<!DOCTYPE svg PUBLIC "-//W3C//DTD SVG 20010904//EN"
 "http://www.w3.org/TR/2001/REC-SVG-20010904/DTD/svg10.dtd">
<svg version="1.0" xmlns="http://www.w3.org/2000/svg"
 width="1081.000000pt" height="1081.000000pt" viewBox="0 0 1081.000000 1081.000000"
 preserveAspectRatio="xMidYMid meet">
<metadata>
Created by potrace 1.11, written by Peter Selinger 2001-2013
</metadata>
<g transform="translate(0.000000,1081.000000) scale(0.100000,-0.100000)"
fill="#000000" stroke="none">
<path d="M4605 9949 c-2459 -667 -2541 -690 -2572 -722 -27 -27 -182 -412
-947 -2342 l-916 -2310 0 -75 c0 -41 4 -90 9 -107 10 -35 3201 -4149 3254
-4196 69 -60 -134 -92 2670 418 1409 256 2574 470 2589 476 74 30 43 -43 1026
2415 644 1610 932 2341 932 2366 0 20 -5 49 -11 65 -5 15 -736 1064 -1622
2331 -1278 1825 -1613 2297 -1615 2277 -4 -34 -13 -31 -37 12 -31 57 -60 72
-145 77 -73 3 -138 -13 -2615 -685z m4114 -2831 c1 -3 -1054 345 -2344 775
-1290 430 -2345 784 -2345 787 0 3 703 357 1563 787 l1562 781 782 -1562 c430
-858 782 -1564 782 -1568z m-4221 2207 l-966 -484 -369 124 c-202 68 -366 124
-363 125 199 58 2631 719 2645 719 11 0 -415 -218 -947 -484z m-1261 -779 c-4
-11 -2261 -2914 -2264 -2912 -2 2 1224 3074 1282 3213 l13 32 486 -162 c267
-89 485 -166 483 -171z m3025 -998 c1341 -447 2438 -815 2437 -818 0 -3 -824
-645 -1832 -1428 -1801 -1398 -1832 -1422 -1839 -1395 -4 15 -279 1024 -611
2241 -332 1216 -601 2212 -598 2212 3 0 1103 -366 2443 -812z m2888 -103 c315
-451 582 -833 593 -849 19 -27 19 -28 1 -18 -10 6 -131 86 -268 179 l-250 168
-338 670 c-186 369 -338 677 -338 685 0 13 2 13 14 0 7 -8 271 -384 586 -835z
m-5080 -1410 c330 -1210 603 -2207 605 -2216 4 -13 -385 62 -2011 387 -1109
222 -2018 405 -2019 406 -4 4 2817 3629 2821 3626 2 -2 273 -994 604 -2203z
m5682 100 l494 -329 -665 -1664 c-366 -916 -667 -1659 -669 -1651 -2 13 309
3784 324 3922 3 32 10 57 14 55 4 -2 230 -151 502 -333z m-1082 -2130 c-110
-1315 -201 -2399 -202 -2411 -3 -18 -225 117 -1605 980 -880 551 -1602 1005
-1603 1010 -2 7 3601 2817 3607 2812 1 -1 -88 -1077 -197 -2391z m-4004 -588
c-9 -34 -1161 -2717 -1167 -2717 -4 0 -2618 3354 -2711 3480 l-27 37 1955
-391 c1789 -358 1955 -393 1950 -409z m1912 -1092 l1551 -970 -2127 -387
c-1170 -213 -2132 -386 -2139 -385 -7 1 225 555 570 1360 320 746 585 1356
588 1355 3 -2 704 -439 1557 -973z"/>
</g>
</svg>
