<svg height='100px' width='100px'  fill="#000000" xmlns="http://www.w3.org/2000/svg" xmlns:xlink="http://www.w3.org/1999/xlink" viewBox="0 0 80 80" version="1.1" x="0px" y="0px"><title>033_mandala_flower_floral_ornament_decoration_nature</title><desc>Created with Sketch.</desc><g stroke="none" stroke-width="1" fill="none" fill-rule="evenodd"><g transform="translate(-920.000000, -199.000000)"><g transform="translate(928.000000, 205.000000)" fill="#000000"><path d="M39.1740906,30.4558639 C40.5105832,28.8466505 41.850379,26.938643 43.080127,24.808657 C47.3731929,17.3728488 48.6528232,10.1281963 46.5,8.88526329 C45.7029831,8.42510534 44.428795,8.78368312 42.9221491,9.79515973 C42.9735568,10.2291911 43,10.6708766 43,11.1187331 C43,16.1582471 40.1647594,23.3291812 36.8949229,27.6718232 C37.8501234,28.4117618 38.6332509,29.3631803 39.1740906,30.4558639 Z M39.8956014,32.7042473 C39.9144507,32.8199848 39.9308166,32.9365562 39.9446426,33.0539051 C44.8954948,33.7240646 52.2792216,32.6785171 56.3205854,30.3452346 C60.6815019,27.8274583 62.1804646,22.257377 59.6686518,17.9067895 C57.5796759,14.2885772 53.3189001,12.5975177 49.3708657,13.6865929 C48.9274478,17.1226325 47.3283528,21.4505142 44.8121778,25.808657 C43.2857734,28.452467 41.6002669,30.7984313 39.8956014,32.7042473 Z M39.9295575,35.0662998 C39.7648838,36.3026882 39.3178233,37.4498134 38.6553476,38.4407039 C40.7174651,38.7936392 43.0401026,39 45.5,39 C54.0861317,39 61,36.4858661 61,34 C61,33.0789595 60.0508758,32.1540385 58.4192317,31.3545514 C58.0716313,31.613637 57.7052386,31.8552058 57.3205854,32.0772854 C52.9554043,34.5975239 45.3254917,35.7275509 39.9295575,35.0662998 Z M37.0687224,40.1896571 C36.9800066,40.2623923 36.889699,40.3332577 36.7978596,40.402193 C38.6937549,45.0243247 43.2898484,50.8937807 47.3302393,53.2265015 C51.6911558,55.7442778 57.2644691,54.257377 59.776282,49.9067895 C61.8641784,46.2904468 61.2000578,41.7577943 58.2867069,38.8830044 C55.0888192,40.2193962 50.5372558,41 45.5,41 C42.4466898,41 39.5718291,40.7131965 37.0687224,40.1896571 Z M35.0489257,41.3984887 C34.1092656,41.7861461 33.0796069,42 32,42 C31.825878,42 31.6530553,41.9944372 31.4816998,41.9834796 C32.2071282,43.9459546 33.1898047,46.0608022 34.419873,48.191343 C38.7129388,55.6271512 44.3471768,60.3576698 46.5,59.1147367 C47.2992215,58.6533059 47.6253765,57.364708 47.499904,55.5462426 C47.1036377,55.3753213 46.7131006,55.1795974 46.3302393,54.9585523 C41.9669487,52.4394053 37.1756216,46.4008622 35.0489257,41.3984887 Z M29.1747339,41.4868235 C29.0660901,41.4458042 28.9585737,41.402488 28.8522438,41.3569341 C25.8000751,45.3114036 23.0193079,52.219415 23.0193079,56.8812669 C23.0193079,61.9168195 27.0936584,66 32.1172842,66 C36.2895478,66 39.8803346,63.1633295 40.91675,59.2081369 C38.1598269,57.1070939 35.2071209,53.5548964 32.6878222,49.191343 C31.1616598,46.5479522 29.9728835,43.9156943 29.1747339,41.4868235 Z M27.1172835,40.3376137 C26.1565475,39.5963348 25.3690511,38.6414706 24.8259094,37.5441361 C23.4894168,39.1533495 22.149621,41.061357 20.919873,43.191343 C16.6268071,50.6271512 15.3471768,57.8718037 17.5,59.1147367 C18.3001695,59.5767148 19.5812925,59.2134674 21.0957402,58.1928071 C21.0452647,57.7626461 21.0193079,57.3249853 21.0193079,56.8812669 C21.0193079,51.8454016 23.8504445,44.6812014 27.1172835,40.3376137 Z M24.1043986,35.2957527 C24.0854077,35.1791457 24.0689376,35.0616922 24.0550462,34.9434499 C19.1043249,34.2786981 11.7347515,35.324563 7.69872257,37.6547654 C3.33780606,40.1725417 1.83884328,45.742623 4.35065616,50.0932105 C6.43610214,53.7053089 10.6860146,55.3967618 14.6284258,54.3189041 C15.0708468,50.8819841 16.6703052,46.5518102 19.1878222,42.191343 C20.7142266,39.547533 22.3997331,37.2015687 24.1043986,35.2957527 Z M24.0707518,32.9313806 C24.2356755,31.695877 24.682591,30.5495669 25.3446524,29.5592961 C23.2825349,29.2063608 20.9598974,29 18.5,29 C9.91386827,29 3,31.5141339 3,34 C3,34.9232322 3.95364684,35.8503635 5.59242834,36.651154 C5.94230123,36.3899088 6.31124713,36.1464236 6.69872257,35.9227146 C11.0587829,33.4054325 18.6759199,32.2751023 24.0707518,32.9313806 Z M26.9312776,27.8103429 C27.0247443,27.7337125 27.119978,27.6591576 27.2169082,27.5867486 C25.3182242,22.9663178 20.726238,17.1043594 16.6890686,14.7734985 C12.3281521,12.2557222 6.75483881,13.742623 4.24302592,18.0932105 C2.15650045,21.7071787 2.81837914,26.2362537 5.72686513,29.1113306 C8.92405213,27.778398 13.469866,27 18.5,27 C21.5533102,27 24.4281709,27.2868035 26.9312776,27.8103429 Z M28.9675077,26.5947531 C29.9027343,26.2113692 30.9266832,26 32,26 C32.174122,26 32.3469447,26.0055628 32.5183002,26.0165204 C31.7928718,24.0540454 30.8101953,21.9391978 29.580127,19.808657 C25.2870612,12.3728488 19.6528232,7.64233025 17.5,8.88526329 C16.7020329,9.34596982 16.3756485,10.6312491 16.4995085,12.4451988 C16.9025994,12.6181362 17.2998014,12.8167042 17.6890686,13.0414477 C22.0503945,15.5594604 26.8393715,21.5937004 28.9675077,26.5947531 Z M34.8252661,26.5131765 C34.9388504,26.5560611 35.0512024,26.6014563 35.1622547,26.6492944 C38.2163111,22.6958536 41,15.7830335 41,11.1187331 C41,6.0831805 36.9256495,2 31.9020237,2 C27.7254423,2 24.1315418,4.84254491 23.0993484,8.80414645 C25.8516642,10.9067354 28.797782,14.4535957 31.3121778,18.808657 C32.8383402,21.4520478 34.0271165,24.0843057 34.8252661,26.5131765 Z M21.3537058,7.65266309 C22.8208182,3.1601058 27.0362479,2.84217094e-14 31.9020237,2.84217094e-14 C36.8573461,2.84217094e-14 41.0542097,3.25487072 42.4800001,7.7458949 C44.3965047,6.6503414 46.1484177,6.37287607 47.5,7.15321248 C48.8108774,7.91004788 49.4483094,9.49053491 49.4941595,11.5990625 C54.119887,10.6208003 58.9669407,12.6913902 61.4007026,16.9067895 C63.8800947,21.2012226 63.1569868,26.4676031 59.9748881,29.9478247 C61.8830359,31.0599751 63,32.438827 63,34 C63,35.5114358 61.9530727,36.8519824 60.154843,37.9450703 C63.3121707,41.4619078 63.9412845,46.6927936 61.5083328,50.9067895 C59.0280806,55.2027123 54.1031522,57.2095751 49.4967657,56.1914575 C49.4894592,58.4047455 48.8539368,60.0650918 47.5,60.8467875 C46.1914778,61.6022631 44.5077271,61.3662645 42.6626655,60.3563162 C41.1928714,64.8441044 36.9798176,68 32.1172842,68 C27.1585203,68 22.9592691,64.7406067 21.5363412,60.2447462 C19.6134546,61.3480732 17.8554229,61.6293413 16.5,60.8467875 C15.1899614,60.0904364 14.5525066,58.5114873 14.5059292,56.4049842 C9.88600061,57.3734607 5.04899684,55.3027721 2.61860535,51.0932105 C0.140954876,46.801794 0.861306868,41.5397951 4.03771769,38.059512 C2.12188441,36.9460912 1,35.5646078 1,34 C1,32.485065 2.05178062,31.1418113 3.85765885,30.0473416 C0.706234154,26.5305711 0.0797726685,21.3041767 2.51097511,17.0932105 C4.98776491,12.8032848 9.90241029,10.7960325 14.5032491,11.8042964 C14.511354,9.593131 15.1469292,7.93440826 16.5,7.15321248 C17.8123914,6.39550298 19.5022337,6.63513982 21.3537058,7.65266309 Z M32,40 C35.3137085,40 38,37.3137085 38,34 C38,30.6862915 35.3137085,28 32,28 C28.6862915,28 26,30.6862915 26,34 C26,37.3137085 28.6862915,40 32,40 Z"></path><path d="M32,12 C32.5522847,12 33,11.5522847 33,11 C33,10.4477153 32.5522847,10 32,10 C31.4477153,10 31,10.4477153 31,11 C31,11.5522847 31.4477153,12 32,12 Z M32,14 C30.3431458,14 29,12.6568542 29,11 C29,9.34314575 30.3431458,8 32,8 C33.6568542,8 35,9.34314575 35,11 C35,12.6568542 33.6568542,14 32,14 Z M52.4185843,23.3660254 C52.8968769,23.089883 53.0607521,22.4782926 52.7846097,22 C52.5084673,21.5217074 51.8968769,21.3578322 51.4185843,21.6339746 C50.9402917,21.910117 50.7764165,22.5217074 51.0525589,23 C51.3287013,23.4782926 51.9402917,23.6421678 52.4185843,23.3660254 Z M50.4185843,19.9019238 C51.8534622,19.0734967 53.6882334,19.5651221 54.5166605,21 C55.3450876,22.4348779 54.8534622,24.2696491 53.4185843,25.0980762 C51.9837064,25.9265033 50.1489352,25.4348779 49.3205081,24 C48.492081,22.5651221 48.9837064,20.7303509 50.4185843,19.9019238 Z M51.4185843,46.3660254 C51.8968769,46.6421678 52.5084673,46.4782926 52.7846097,46 C53.0607521,45.5217074 52.8968769,44.910117 52.4185843,44.6339746 C51.9402917,44.3578322 51.3287013,44.5217074 51.0525589,45 C50.7764165,45.4782926 50.9402917,46.089883 51.4185843,46.3660254 Z M53.4185843,42.9019238 C54.8534622,43.7303509 55.3450876,45.5651221 54.5166605,47 C53.6882334,48.4348779 51.8534622,48.9265033 50.4185843,48.0980762 C48.9837064,47.2696491 48.492081,45.4348779 49.3205081,44 C50.1489352,42.5651221 51.9837064,42.0734967 53.4185843,42.9019238 Z M32,56 C31.4477153,56 31,56.4477153 31,57 C31,57.5522847 31.4477153,58 32,58 C32.5522847,58 33,57.5522847 33,57 C33,56.4477153 32.5522847,56 32,56 Z M32,54 C33.6568542,54 35,55.3431458 35,57 C35,58.6568542 33.6568542,60 32,60 C30.3431458,60 29,58.6568542 29,57 C29,55.3431458 30.3431458,54 32,54 Z M11.5814157,44.6339746 C11.1031231,44.910117 10.9392479,45.5217074 11.2153903,46 C11.4915327,46.4782926 12.1031231,46.6421678 12.5814157,46.3660254 C13.0597083,46.089883 13.2235835,45.4782926 12.9474411,45 C12.6712987,44.5217074 12.0597083,44.3578322 11.5814157,44.6339746 Z M13.5814157,48.0980762 C12.1465378,48.9265033 10.3117666,48.4348779 9.4833395,47 C8.65491238,45.5651221 9.14653784,43.7303509 10.5814157,42.9019238 C12.0162936,42.0734967 13.8510648,42.5651221 14.6794919,44 C15.507919,45.4348779 15.0162936,47.2696491 13.5814157,48.0980762 Z M12.5814157,21.6339746 C12.1031231,21.3578322 11.4915327,21.5217074 11.2153903,22 C10.9392479,22.4782926 11.1031231,23.089883 11.5814157,23.3660254 C12.0597083,23.6421678 12.6712987,23.4782926 12.9474411,23 C13.2235835,22.5217074 13.0597083,21.910117 12.5814157,21.6339746 Z M10.5814157,25.0980762 C9.14653784,24.2696491 8.65491238,22.4348779 9.4833395,21 C10.3117666,19.5651221 12.1465378,19.0734967 13.5814157,19.9019238 C15.0162936,20.7303509 15.507919,22.5651221 14.6794919,24 C13.8510648,25.4348779 12.0162936,25.9265033 10.5814157,25.0980762 Z"></path><path d="M32,24 C27.099327,24 23,21.4379206 23,18 C23,14.5620794 27.099327,12 32,12 C36.900673,12 41,14.5620794 41,18 C41,21.4379206 36.900673,24 32,24 Z M32,22 C35.935883,22 39,20.0849269 39,18 C39,15.9150731 35.935883,14 32,14 C28.064117,14 25,15.9150731 25,18 C25,20.0849269 28.064117,22 32,22 Z"></path><path d="M32,24 L32,22 C33.4620027,22 36,14.5533078 36,11 C36,8.790861 34.209139,7 32,7 C29.790861,7 28,8.790861 28,11 C28,11.7979823 28.2198717,13.2596479 28.5891033,14.8299166 L26.6422017,15.2877093 C26.2407475,13.5804044 26,11.9799602 26,11 C26,7.6862915 28.6862915,5 32,5 C35.3137085,5 38,7.6862915 38,11 C38,15.6399497 35.1507101,24 32,24 Z M40.660254,29 L42.3923048,28 C43.1233062,29.2661315 50.8413295,27.7407555 53.9185843,25.9641016 C55.8317548,24.8595321 56.4872554,22.4131705 55.3826859,20.5 C54.2781164,18.5868295 51.8317548,17.9313289 49.9185843,19.0358984 C49.2275114,19.4348895 48.0716077,20.3561368 46.8963309,21.4610351 L45.52642,20.0038652 C46.8042623,18.8025433 48.0699139,17.7938277 48.9185843,17.3038476 C51.78834,15.6469933 55.4578825,16.6302443 57.1147367,19.5 C58.771591,22.3697557 57.78834,26.0392982 54.9185843,27.6961524 C50.90027,30.0161273 42.2356091,31.7285949 40.660254,29 Z M40.660254,39 L42.3923048,40 C41.6613035,41.2661315 46.8413295,47.1874477 49.9185843,48.9641016 C51.8317548,50.0686711 54.2781164,49.4131705 55.3826859,47.5 C56.4872554,45.5868295 55.8317548,43.1404679 53.9185843,42.0358984 C53.2275114,41.6369073 51.851736,41.0964889 50.3072276,40.6311185 L50.8842183,38.7161559 C52.5635147,39.2221389 54.0699139,39.8138675 54.9185843,40.3038476 C57.78834,41.9607018 58.771591,45.6302443 57.1147367,48.5 C55.4578825,51.3697557 51.78834,52.3530067 48.9185843,50.6961524 C44.90027,48.3761776 39.084899,41.7285949 40.660254,39 Z M32,44 L32,46 C30.5379973,46 28,53.4466922 28,57 C28,59.209139 29.790861,61 32,61 C34.209139,61 36,59.209139 36,57 C36,56.2020177 35.7801283,54.7403521 35.4108967,53.1700834 L37.3577983,52.7122907 C37.7592525,54.4195956 38,56.0200398 38,57 C38,60.3137085 35.3137085,63 32,63 C28.6862915,63 26,60.3137085 26,57 C26,52.3600503 28.8492899,44 32,44 Z M23.339746,39 L21.6076952,40 C20.8766938,38.7338685 13.1586705,40.2592445 10.0814157,42.0358984 C8.16824522,43.1404679 7.5127446,45.5868295 8.6173141,47.5 C9.7218836,49.4131705 12.1682452,50.0686711 14.0814157,48.9641016 C14.7724886,48.5651105 15.9283923,47.6438632 17.1036691,46.5389649 L18.47358,47.9961348 C17.1957377,49.1974567 15.9300861,50.2061723 15.0814157,50.6961524 C12.21166,52.3530067 8.54211754,51.3697557 6.88526329,48.5 C5.22840904,45.6302443 6.21165997,41.9607018 9.08141571,40.3038476 C13.09973,37.9838727 21.7643909,36.2714051 23.339746,39 Z M23.339746,29 L21.6076952,28 C22.3386965,26.7338685 17.1586705,20.8125523 14.0814157,19.0358984 C12.1682452,17.9313289 9.7218836,18.5868295 8.6173141,20.5 C7.5127446,22.4131705 8.16824522,24.8595321 10.0814157,25.9641016 C10.7724886,26.3630927 12.148264,26.9035111 13.6927724,27.3688815 L13.1157817,29.2838441 C11.4364853,28.7778611 9.93008611,28.1861325 9.08141571,27.6961524 C6.21165997,26.0392982 5.22840904,22.3697557 6.88526329,19.5 C8.54211754,16.6302443 12.21166,15.6469933 15.0814157,17.3038476 C19.09973,19.6238224 24.915101,26.2714051 23.339746,29 Z"></path><path d="M32,7 C29.8270792,7 28,5.47743402 28,3.5 C28,1.52256598 29.8270792,0 32,0 C34.1729208,0 36,1.52256598 36,3.5 C36,5.47743402 34.1729208,7 32,7 Z M32,5 C33.1407877,5 34,4.28398972 34,3.5 C34,2.71601028 33.1407877,2 32,2 C30.8592123,2 30,2.71601028 30,3.5 C30,4.28398972 30.8592123,5 32,5 Z"></path><path d="M58.4137748,22.25 C56.240854,22.25 54.4137748,20.727434 54.4137748,18.75 C54.4137748,16.772566 56.240854,15.25 58.4137748,15.25 C60.5866956,15.25 62.4137748,16.772566 62.4137748,18.75 C62.4137748,20.727434 60.5866956,22.25 58.4137748,22.25 Z M58.4137748,20.25 C59.5545625,20.25 60.4137748,19.5339897 60.4137748,18.75 C60.4137748,17.9660103 59.5545625,17.25 58.4137748,17.25 C57.2729871,17.25 56.4137748,17.9660103 56.4137748,18.75 C56.4137748,19.5339897 57.2729871,20.25 58.4137748,20.25 Z" transform="translate(58.413775, 18.750000) rotate(60.000000) translate(-58.413775, -18.750000) "></path><path d="M58.4137748,52.75 C56.240854,52.75 54.4137748,51.227434 54.4137748,49.25 C54.4137748,47.272566 56.240854,45.75 58.4137748,45.75 C60.5866956,45.75 62.4137748,47.272566 62.4137748,49.25 C62.4137748,51.227434 60.5866956,52.75 58.4137748,52.75 Z M58.4137748,50.75 C59.5545625,50.75 60.4137748,50.0339897 60.4137748,49.25 C60.4137748,48.4660103 59.5545625,47.75 58.4137748,47.75 C57.2729871,47.75 56.4137748,48.4660103 56.4137748,49.25 C56.4137748,50.0339897 57.2729871,50.75 58.4137748,50.75 Z" transform="translate(58.413775, 49.250000) rotate(120.000000) translate(-58.413775, -49.250000) "></path><path d="M32,68 C29.8270792,68 28,66.477434 28,64.5 C28,62.522566 29.8270792,61 32,61 C34.1729208,61 36,62.522566 36,64.5 C36,66.477434 34.1729208,68 32,68 Z M32,66 C33.1407877,66 34,65.2839897 34,64.5 C34,63.7160103 33.1407877,63 32,63 C30.8592123,63 30,63.7160103 30,64.5 C30,65.2839897 30.8592123,66 32,66 Z" transform="translate(32.000000, 64.500000) rotate(180.000000) translate(-32.000000, -64.500000) "></path><path d="M5.58622518,52.75 C3.41330435,52.75 1.58622518,51.227434 1.58622518,49.25 C1.58622518,47.272566 3.41330435,45.75 5.58622518,45.75 C7.75914601,45.75 9.58622518,47.272566 9.58622518,49.25 C9.58622518,51.227434 7.75914601,52.75 5.58622518,52.75 Z M5.58622518,50.75 C6.72701285,50.75 7.58622518,50.0339897 7.58622518,49.25 C7.58622518,48.4660103 6.72701285,47.75 5.58622518,47.75 C4.44543752,47.75 3.58622518,48.4660103 3.58622518,49.25 C3.58622518,50.0339897 4.44543752,50.75 5.58622518,50.75 Z" transform="translate(5.586225, 49.250000) rotate(240.000000) translate(-5.586225, -49.250000) "></path><path d="M5.58622518,22.25 C3.41330435,22.25 1.58622518,20.727434 1.58622518,18.75 C1.58622518,16.772566 3.41330435,15.25 5.58622518,15.25 C7.75914601,15.25 9.58622518,16.772566 9.58622518,18.75 C9.58622518,20.727434 7.75914601,22.25 5.58622518,22.25 Z M5.58622518,20.25 C6.72701285,20.25 7.58622518,19.5339897 7.58622518,18.75 C7.58622518,17.9660103 6.72701285,17.25 5.58622518,17.25 C4.44543752,17.25 3.58622518,17.9660103 3.58622518,18.75 C3.58622518,19.5339897 4.44543752,20.25 5.58622518,20.25 Z" transform="translate(5.586225, 18.750000) rotate(300.000000) translate(-5.586225, -18.750000) "></path><path d="M45.8564065,32 C40.9557335,32 36.8564065,29.4379206 36.8564065,26 C36.8564065,22.5620794 40.9557335,20 45.8564065,20 C50.7570794,20 54.8564065,22.5620794 54.8564065,26 C54.8564065,29.4379206 50.7570794,32 45.8564065,32 Z M45.8564065,30 C49.7922895,30 52.8564065,28.0849269 52.8564065,26 C52.8564065,23.9150731 49.7922895,22 45.8564065,22 C41.9205234,22 38.8564065,23.9150731 38.8564065,26 C38.8564065,28.0849269 41.9205234,30 45.8564065,30 Z" transform="translate(45.856406, 26.000000) rotate(60.000000) translate(-45.856406, -26.000000) "></path><path d="M45.8564065,48 C40.9557335,48 36.8564065,45.4379206 36.8564065,42 C36.8564065,38.5620794 40.9557335,36 45.8564065,36 C50.7570794,36 54.8564065,38.5620794 54.8564065,42 C54.8564065,45.4379206 50.7570794,48 45.8564065,48 Z M45.8564065,46 C49.7922895,46 52.8564065,44.0849269 52.8564065,42 C52.8564065,39.9150731 49.7922895,38 45.8564065,38 C41.9205234,38 38.8564065,39.9150731 38.8564065,42 C38.8564065,44.0849269 41.9205234,46 45.8564065,46 Z" transform="translate(45.856406, 42.000000) rotate(120.000000) translate(-45.856406, -42.000000) "></path><path d="M32,56 C27.099327,56 23,53.4379206 23,50 C23,46.5620794 27.099327,44 32,44 C36.900673,44 41,46.5620794 41,50 C41,53.4379206 36.900673,56 32,56 Z M32,54 C35.935883,54 39,52.0849269 39,50 C39,47.9150731 35.935883,46 32,46 C28.064117,46 25,47.9150731 25,50 C25,52.0849269 28.064117,54 32,54 Z" transform="translate(32.000000, 50.000000) rotate(180.000000) translate(-32.000000, -50.000000) "></path><path d="M18.1435935,48 C13.2429206,48 9.14359354,45.4379206 9.14359354,42 C9.14359354,38.5620794 13.2429206,36 18.1435935,36 C23.0442665,36 27.1435935,38.5620794 27.1435935,42 C27.1435935,45.4379206 23.0442665,48 18.1435935,48 Z M18.1435935,46 C22.0794766,46 25.1435935,44.0849269 25.1435935,42 C25.1435935,39.9150731 22.0794766,38 18.1435935,38 C14.2077105,38 11.1435935,39.9150731 11.1435935,42 C11.1435935,44.0849269 14.2077105,46 18.1435935,46 Z" transform="translate(18.143594, 42.000000) rotate(240.000000) translate(-18.143594, -42.000000) "></path><path d="M18.1435935,32 C13.2429206,32 9.14359354,29.4379206 9.14359354,26 C9.14359354,22.5620794 13.2429206,20 18.1435935,20 C23.0442665,20 27.1435935,22.5620794 27.1435935,26 C27.1435935,29.4379206 23.0442665,32 18.1435935,32 Z M18.1435935,30 C22.0794766,30 25.1435935,28.0849269 25.1435935,26 C25.1435935,23.9150731 22.0794766,22 18.1435935,22 C14.2077105,22 11.1435935,23.9150731 11.1435935,26 C11.1435935,28.0849269 14.2077105,30 18.1435935,30 Z" transform="translate(18.143594, 26.000000) rotate(300.000000) translate(-18.143594, -26.000000) "></path></g></g></g></svg>